<svg xmlns="http://www.w3.org/2000/svg" viewBox="0 0 1920 1080">
  <defs>
    <linearGradient id="sky" x1="0%" y1="0%" x2="0%" y2="100%">
      <stop offset="0%" style="stop-color:#2c3e50"/>
      <stop offset="100%" style="stop-color:#3498db"/>
    </linearGradient>
    <linearGradient id="building-gradient" x1="0%" y1="0%" x2="0%" y2="100%">
      <stop offset="0%" style="stop-color:#ecf0f1"/>
      <stop offset="100%" style="stop-color:#bdc3c7"/>
    </linearGradient>
  </defs>

  <!-- Background -->
  <rect width="1920" height="1080" fill="url(#sky)"/>

  <!-- City Skyline -->
  <g>
    <!-- Building 1 -->
    <rect x="100" y="300" width="200" height="780" fill="url(#building-gradient)"/>
    <g fill="#2c3e50">
      <rect x="120" y="320" width="40" height="60" rx="2"/>
      <rect x="180" y="320" width="40" height="60" rx="2"/>
      <rect x="240" y="320" width="40" height="60" rx="2"/>
      <!-- Repeat windows pattern -->
      <rect x="120" y="400" width="40" height="60" rx="2"/>
      <rect x="180" y="400" width="40" height="60" rx="2"/>
      <rect x="240" y="400" width="40" height="60" rx="2"/>
    </g>

    <!-- Building 2 -->
    <rect x="400" y="200" width="300" height="880" fill="url(#building-gradient)"/>
    <g fill="#2c3e50">
      <rect x="420" y="220" width="50" height="70" rx="2"/>
      <rect x="490" y="220" width="50" height="70" rx="2"/>
      <rect x="560" y="220" width="50" height="70" rx="2"/>
      <rect x="630" y="220" width="50" height="70" rx="2"/>
      <!-- Repeat windows pattern -->
      <rect x="420" y="310" width="50" height="70" rx="2"/>
      <rect x="490" y="310" width="50" height="70" rx="2"/>
      <rect x="560" y="310" width="50" height="70" rx="2"/>
      <rect x="630" y="310" width="50" height="70" rx="2"/>
    </g>

    <!-- Building 3 -->
    <rect x="800" y="100" width="400" height="980" fill="url(#building-gradient)"/>
    <g fill="#2c3e50">
      <rect x="820" y="120" width="60" height="80" rx="2"/>
      <rect x="900" y="120" width="60" height="80" rx="2"/>
      <rect x="980" y="120" width="60" height="80" rx="2"/>
      <rect x="1060" y="120" width="60" height="80" rx="2"/>
      <!-- Repeat windows pattern -->
      <rect x="820" y="220" width="60" height="80" rx="2"/>
      <rect x="900" y="220" width="60" height="80" rx="2"/>
      <rect x="980" y="220" width="60" height="80" rx="2"/>
      <rect x="1060" y="220" width="60" height="80" rx="2"/>
    </g>

    <!-- Building 4 -->
    <rect x="1300" y="400" width="250" height="680" fill="url(#building-gradient)"/>
    <g fill="#2c3e50">
      <rect x="1320" y="420" width="45" height="65" rx="2"/>
      <rect x="1385" y="420" width="45" height="65" rx="2"/>
      <rect x="1450" y="420" width="45" height="65" rx="2"/>
      <!-- Repeat windows pattern -->
      <rect x="1320" y="505" width="45" height="65" rx="2"/>
      <rect x="1385" y="505" width="45" height="65" rx="2"/>
      <rect x="1450" y="505" width="45" height="65" rx="2"/>
    </g>

    <!-- Building 5 -->
    <rect x="1600" y="250" width="220" height="830" fill="url(#building-gradient)"/>
    <g fill="#2c3e50">
      <rect x="1620" y="270" width="40" height="60" rx="2"/>
      <rect x="1680" y="270" width="40" height="60" rx="2"/>
      <rect x="1740" y="270" width="40" height="60" rx="2"/>
      <!-- Repeat windows pattern -->
      <rect x="1620" y="350" width="40" height="60" rx="2"/>
      <rect x="1680" y="350" width="40" height="60" rx="2"/>
      <rect x="1740" y="350" width="40" height="60" rx="2"/>
    </g>
  </g>

  <!-- Overlay for text readability -->
  <rect width="1920" height="1080" fill="rgba(0,0,0,0.4)"/>
</svg>